<svg width="168" height="89" viewBox="0 0 168 89" fill="none" xmlns="http://www.w3.org/2000/svg">
<path d="M84.0312 31.2188C84.7083 31.3906 85.2396 31.7083 85.625 32.1719C86.0156 32.6354 86.2109 33.2396 86.2109 33.9844C86.2109 34.8854 85.9245 35.6146 85.3516 36.1719C84.7786 36.724 84.0026 37 83.0234 37H78.6797V25.9531H82.0703C83.0807 25.9531 83.888 26.224 84.4922 26.7656C85.0964 27.3021 85.3984 28.0104 85.3984 28.8906C85.3984 29.4219 85.2812 29.8906 85.0469 30.2969C84.8125 30.7031 84.474 31.0104 84.0312 31.2188ZM83.9453 28.9922C83.9453 28.5026 83.776 28.099 83.4375 27.7812C83.1042 27.4583 82.6458 27.2969 82.0625 27.2969H80.1875V30.7344H82.3047C82.7943 30.7344 83.1901 30.5677 83.4922 30.2344C83.7943 29.901 83.9453 29.487 83.9453 28.9922ZM82.7578 35.6328C83.362 35.6328 83.8359 35.4583 84.1797 35.1094C84.5234 34.7604 84.6953 34.3333 84.6953 33.8281C84.6953 33.2969 84.5156 32.8594 84.1562 32.5156C83.8021 32.1719 83.3047 32 82.6641 32H80.1875V35.6328H82.7578ZM93.0437 30.6094C93.2312 30.1927 93.5516 29.8516 94.0047 29.5859C94.4578 29.3203 94.9578 29.1849 95.5047 29.1797V30.5703C94.7078 30.5703 94.1062 30.7552 93.7 31.125C93.2937 31.4948 93.0906 32.0964 93.0906 32.9297V37H91.5906V29.2656H93.0437V30.6094ZM101.962 37.1484C101.52 37.1484 101.124 37.0781 100.775 36.9375C100.431 36.7969 100.147 36.5651 99.9234 36.2422C99.7047 35.9141 99.5953 35.5104 99.5953 35.0312C99.5953 34.6406 99.6656 34.3021 99.8062 34.0156C99.9521 33.7292 100.166 33.4948 100.447 33.3125C100.733 33.1302 101.038 32.9844 101.361 32.875C101.689 32.7656 102.08 32.6719 102.533 32.5938L103.752 32.3828C104.22 32.2943 104.455 32.0573 104.455 31.6719C104.455 31.1771 104.298 30.8151 103.986 30.5859C103.673 30.3516 103.283 30.2344 102.814 30.2344C102.335 30.2344 101.939 30.349 101.627 30.5781C101.314 30.8073 101.129 31.1641 101.072 31.6484L99.7203 31.375C99.8453 30.625 100.176 30.0625 100.712 29.6875C101.254 29.3125 101.978 29.125 102.884 29.125C103.212 29.125 103.517 29.151 103.798 29.2031C104.08 29.2552 104.351 29.3464 104.611 29.4766C104.877 29.6068 105.101 29.7734 105.283 29.9766C105.47 30.1745 105.619 30.4323 105.728 30.75C105.843 31.0625 105.9 31.4193 105.9 31.8203V34.9531C105.9 35.3385 105.957 35.6016 106.072 35.7422C106.192 35.8776 106.392 35.9453 106.673 35.9453H106.791V37H106.064C105.215 37 104.715 36.6536 104.564 35.9609H104.494C104.202 36.3672 103.832 36.6667 103.384 36.8594C102.942 37.0521 102.468 37.1484 101.962 37.1484ZM102.306 35.9531C102.973 35.9531 103.515 35.7161 103.931 35.2422C104.353 34.763 104.564 34.1198 104.564 33.3125L102.541 33.7266C102.041 33.8099 101.668 33.9453 101.423 34.1328C101.179 34.3151 101.056 34.5755 101.056 34.9141C101.056 35.263 101.171 35.5234 101.4 35.6953C101.634 35.8672 101.936 35.9531 102.306 35.9531ZM117.366 25H118.866V37H117.42L117.381 35.5938C117.142 36.0781 116.782 36.4609 116.303 36.7422C115.824 37.0234 115.29 37.1641 114.702 37.1641C114.207 37.1641 113.738 37.0703 113.295 36.8828C112.853 36.6901 112.465 36.4219 112.131 36.0781C111.803 35.7344 111.543 35.3099 111.35 34.8047C111.157 34.2943 111.061 33.737 111.061 33.1328C111.061 32.3359 111.225 31.6302 111.553 31.0156C111.886 30.3958 112.329 29.9245 112.881 29.6016C113.433 29.2734 114.04 29.1094 114.702 29.1094C115.285 29.1094 115.814 29.2474 116.287 29.5234C116.761 29.7943 117.121 30.1667 117.366 30.6406V25ZM115.022 35.8828C115.715 35.8828 116.295 35.6224 116.764 35.1016C117.233 34.5755 117.467 33.9193 117.467 33.1328C117.467 32.3464 117.23 31.6927 116.756 31.1719C116.287 30.651 115.709 30.3906 115.022 30.3906C114.324 30.3906 113.738 30.6432 113.264 31.1484C112.795 31.6536 112.561 32.3151 112.561 33.1328C112.561 33.9505 112.795 34.6146 113.264 35.125C113.738 35.6302 114.324 35.8828 115.022 35.8828ZM128.441 26.2422C128.269 26.2422 128.144 26.2448 128.066 26.25C127.987 26.25 127.873 26.2604 127.722 26.2812C127.571 26.2969 127.456 26.3229 127.378 26.3594C127.3 26.3958 127.206 26.4531 127.097 26.5312C126.993 26.6042 126.915 26.6953 126.862 26.8047C126.81 26.9089 126.764 27.0469 126.722 27.2188C126.685 27.3854 126.667 27.5781 126.667 27.7969V29.2656H128.441V30.4453H126.667V37H125.175V30.4453H123.683V29.2656H125.175V27.7734C125.175 27.2995 125.23 26.8932 125.339 26.5547C125.448 26.2161 125.592 25.9479 125.769 25.75C125.951 25.5521 126.188 25.3958 126.48 25.2812C126.771 25.1667 127.066 25.0911 127.362 25.0547C127.665 25.0182 128.024 25 128.441 25V26.2422ZM136.414 37.1484C135.263 37.1484 134.315 36.7839 133.57 36.0547C132.826 35.3203 132.453 34.3438 132.453 33.125C132.453 31.9062 132.823 30.9323 133.562 30.2031C134.307 29.474 135.258 29.1094 136.414 29.1094C137.57 29.1094 138.518 29.474 139.258 30.2031C139.997 30.9323 140.367 31.9062 140.367 33.125C140.367 34.3438 139.997 35.3203 139.258 36.0547C138.518 36.7839 137.57 37.1484 136.414 37.1484ZM136.398 35.9141C137.117 35.9141 137.711 35.6589 138.18 35.1484C138.648 34.6328 138.883 33.9583 138.883 33.125C138.883 32.2917 138.648 31.6198 138.18 31.1094C137.711 30.599 137.117 30.3438 136.398 30.3438C135.69 30.3438 135.104 30.599 134.641 31.1094C134.177 31.6198 133.945 32.2917 133.945 33.125C133.945 33.9583 134.177 34.6328 134.641 35.1484C135.104 35.6589 135.69 35.9141 136.398 35.9141ZM147.075 30.6094C147.262 30.1927 147.583 29.8516 148.036 29.5859C148.489 29.3203 148.989 29.1849 149.536 29.1797V30.5703C148.739 30.5703 148.137 30.7552 147.731 31.125C147.325 31.4948 147.122 32.0964 147.122 32.9297V37H145.622V29.2656H147.075V30.6094ZM159.869 25H161.369V37H159.923L159.884 35.5938C159.645 36.0781 159.285 36.4609 158.806 36.7422C158.327 37.0234 157.793 37.1641 157.205 37.1641C156.71 37.1641 156.241 37.0703 155.798 36.8828C155.356 36.6901 154.968 36.4219 154.634 36.0781C154.306 35.7344 154.046 35.3099 153.853 34.8047C153.66 34.2943 153.564 33.737 153.564 33.1328C153.564 32.3359 153.728 31.6302 154.056 31.0156C154.39 30.3958 154.832 29.9245 155.384 29.6016C155.936 29.2734 156.543 29.1094 157.205 29.1094C157.788 29.1094 158.317 29.2474 158.791 29.5234C159.265 29.7943 159.624 30.1667 159.869 30.6406V25ZM157.525 35.8828C158.218 35.8828 158.798 35.6224 159.267 35.1016C159.736 34.5755 159.97 33.9193 159.97 33.1328C159.97 32.3464 159.733 31.6927 159.259 31.1719C158.791 30.651 158.213 30.3906 157.525 30.3906C156.827 30.3906 156.241 30.6432 155.767 31.1484C155.298 31.6536 155.064 32.3151 155.064 33.1328C155.064 33.9505 155.298 34.6146 155.767 35.125C156.241 35.6302 156.827 35.8828 157.525 35.8828Z" fill="black"/>
<path d="M85.6797 50.9531H87.2344V62H85.6797V57.1562H80.25V62H78.6797V50.9531H80.25V55.7734H85.6797V50.9531ZM98.3328 54.2656H99.8328V62H98.4031L98.3641 61C98.1141 61.3646 97.7859 61.6484 97.3797 61.8516C96.9786 62.0495 96.5255 62.1484 96.0203 62.1484C95.187 62.1484 94.5255 61.9167 94.0359 61.4531C93.5516 60.9844 93.3094 60.3229 93.3094 59.4688V54.2656H94.8172V59.1406C94.8172 59.7344 94.9708 60.1771 95.2781 60.4688C95.5854 60.7552 95.9786 60.8984 96.4578 60.8984C97.0099 60.8984 97.4578 60.7266 97.8016 60.3828C98.1505 60.0391 98.3276 59.5208 98.3328 58.8281V54.2656ZM109.9 54.1094C110.561 54.1094 111.166 54.2734 111.712 54.6016C112.265 54.9245 112.705 55.3958 113.033 56.0156C113.361 56.6302 113.525 57.3359 113.525 58.1328C113.525 59.3359 113.176 60.3099 112.478 61.0547C111.785 61.7943 110.926 62.1641 109.9 62.1641C109.301 62.1641 108.762 62.0234 108.283 61.7422C107.809 61.4609 107.452 61.0781 107.212 60.5938L107.173 62H105.728V50H107.22L107.228 55.6406C107.473 55.1667 107.832 54.7943 108.306 54.5234C108.78 54.2474 109.311 54.1094 109.9 54.1094ZM107.822 60.1016C108.296 60.6224 108.879 60.8828 109.572 60.8828C110.265 60.8828 110.845 60.6302 111.314 60.125C111.788 59.6146 112.025 58.9505 112.025 58.1328C112.025 57.3151 111.788 56.6536 111.314 56.1484C110.845 55.6432 110.265 55.3906 109.572 55.3906C108.884 55.3906 108.304 55.6536 107.83 56.1797C107.356 56.7005 107.119 57.3516 107.119 58.1328C107.119 58.9193 107.353 59.5755 107.822 60.1016ZM125.647 57.9844L125.623 58.3828H119.631C119.657 59.2005 119.897 59.8281 120.35 60.2656C120.803 60.7031 121.368 60.9219 122.045 60.9219C122.504 60.9219 122.915 60.8047 123.28 60.5703C123.644 60.3359 123.926 60.0078 124.123 59.5859L125.483 59.8516C125.212 60.5651 124.769 61.1276 124.155 61.5391C123.545 61.9453 122.847 62.1484 122.061 62.1484C120.894 62.1484 119.952 61.7917 119.233 61.0781C118.519 60.3594 118.162 59.3776 118.162 58.1328C118.162 56.8932 118.522 55.9141 119.241 55.1953C119.959 54.4714 120.884 54.1094 122.014 54.1094C123.108 54.1094 123.985 54.4401 124.647 55.1016C125.308 55.763 125.642 56.724 125.647 57.9844ZM122.022 55.25C121.407 55.25 120.894 55.4193 120.483 55.7578C120.071 56.0911 119.808 56.5859 119.694 57.2422H124.139C124.077 56.5911 123.855 56.0964 123.475 55.7578C123.095 55.4193 122.61 55.25 122.022 55.25ZM132.347 55.6094C132.534 55.1927 132.855 54.8516 133.308 54.5859C133.761 54.3203 134.261 54.1849 134.808 54.1797V55.5703C134.011 55.5703 133.409 55.7552 133.003 56.125C132.597 56.4948 132.394 57.0964 132.394 57.9297V62H130.894V54.2656H132.347V55.6094Z" fill="black"/>
<path fill-rule="evenodd" clip-rule="evenodd" d="M32 26.5899C32 25.1596 33.1751 24 34.625 24C36.0749 24 37.25 25.1596 37.25 26.5899V41.5165C39.6469 39.7393 42.6893 38.6763 46 38.6763C53.4687 38.6763 59.5712 44.0858 59.9784 50.8999L60 50.9065V61.4101C60 62.8406 58.8249 64 57.375 64C55.9251 64 54.75 62.8406 54.75 61.4101V51.0504H54.7308C54.4306 46.5508 50.6363 42.9928 46 42.9928C41.1674 42.9928 37.25 46.858 37.25 51.6259V61.4101V61.7353C37.2439 61.7307 37.2375 61.726 37.2313 61.7214C37.0753 63.0049 35.9678 64 34.625 64C33.1751 64 32 62.8406 32 61.4101V51.6259V26.5899Z" fill="url(#paint0_linear_24_2)"/>
<path fill-rule="evenodd" clip-rule="evenodd" d="M2.625 24C1.17525 24 0 25.1717 0 26.617V51.3333C0 51.395 0.00214136 51.4562 0.00635405 51.5168C0.00212801 51.6491 0 51.7817 0 51.9149C0 59.1417 6.268 65 14 65C21.732 65 28 59.1417 28 51.9149C28 44.6882 21.732 38.8298 14 38.8298C10.6892 38.8298 7.6468 39.9039 5.25 41.6997V26.617C5.25 25.1717 4.07476 24 2.625 24ZM22.75 51.9149C22.75 56.7328 18.8325 60.6383 14 60.6383C9.16752 60.6383 5.25 56.7328 5.25 51.9149C5.25 47.0971 9.16752 43.1915 14 43.1915C18.8325 43.1915 22.75 47.0971 22.75 51.9149Z" fill="url(#paint1_linear_24_2)"/>
<line x1="76.9971" y1="45" x2="162.003" y2="45" stroke="#C4C4C4"/>
<defs>
<linearGradient id="paint0_linear_24_2" x1="46" y1="24" x2="46" y2="64" gradientUnits="userSpaceOnUse">
<stop stop-color="#2232C4"/>
<stop offset="1" stop-color="#3922C4" stop-opacity="0.79"/>
</linearGradient>
<linearGradient id="paint1_linear_24_2" x1="14" y1="24" x2="14" y2="65" gradientUnits="userSpaceOnUse">
<stop stop-color="#1639B9"/>
<stop offset="1" stop-color="#3922C4" stop-opacity="0.79"/>
</linearGradient>
</defs>
</svg>
